<svg xmlns="http://www.w3.org/2000/svg" xmlns:xlink="http://www.w3.org/1999/xlink" width="500" zoomAndPan="magnify" viewBox="0 0 375 374.999991" height="500" preserveAspectRatio="xMidYMid meet" version="1.0"><defs><clipPath id="dc0f6b1071"><path d="M 38.21875 22.300781 L 234 22.300781 L 234 353 L 38.21875 353 Z M 38.21875 22.300781 " clip-rule="nonzero"/></clipPath><clipPath id="fdeec9874c"><path d="M 64 58 L 336.632812 58 L 336.632812 128 L 64 128 Z M 64 58 " clip-rule="nonzero"/></clipPath><clipPath id="c2227f942b"><path d="M 64 139 L 336.632812 139 L 336.632812 209 L 64 209 Z M 64 139 " clip-rule="nonzero"/></clipPath><clipPath id="050af67390"><path d="M 64 220 L 336.632812 220 L 336.632812 290 L 64 290 Z M 64 220 " clip-rule="nonzero"/></clipPath></defs><g clip-path="url(#dc0f6b1071)"><path fill="#203d4a" d="M 135.707031 317.335938 C 143.191406 317.335938 149.253906 323.394531 149.253906 330.878906 C 149.253906 338.363281 143.191406 344.425781 135.707031 344.425781 C 128.226562 344.425781 122.164062 338.363281 122.164062 330.878906 C 122.164062 323.398438 128.226562 317.335938 135.707031 317.335938 M 52.539062 22.300781 L 218.875 22.300781 C 226.738281 22.300781 233.175781 28.734375 233.175781 36.601562 L 233.175781 51.273438 L 224.144531 51.273438 L 224.144531 44.878906 C 224.144531 41.984375 221.777344 39.609375 218.875 39.609375 L 52.539062 39.609375 C 49.644531 39.609375 47.273438 41.980469 47.273438 44.878906 L 47.273438 304.542969 C 47.273438 307.4375 49.648438 309.808594 52.539062 309.808594 L 218.875 309.808594 C 221.773438 309.808594 224.144531 307.4375 224.144531 304.542969 L 224.144531 296.640625 L 233.175781 296.640625 L 233.175781 338.414062 C 233.175781 346.273438 226.738281 352.707031 218.875 352.707031 L 52.539062 352.707031 C 44.675781 352.707031 38.242188 346.273438 38.242188 338.414062 L 38.242188 36.601562 C 38.242188 28.734375 44.675781 22.300781 52.539062 22.300781 Z M 52.539062 22.300781 " fill-opacity="1" fill-rule="evenodd"/></g><g clip-path="url(#fdeec9874c)"><path fill="#2bbced" d="M 336.757812 67.3125 L 336.757812 58.492188 L 98.863281 58.492188 C 89.433594 58.492188 80.867188 62.347656 74.652344 68.554688 C 68.445312 74.765625 64.589844 83.335938 64.589844 92.765625 C 64.589844 102.195312 68.445312 110.765625 74.652344 116.976562 C 80.863281 123.183594 89.433594 127.039062 98.863281 127.039062 L 336.757812 127.039062 L 336.757812 118.214844 C 329.761719 118.214844 323.398438 115.351562 318.785156 110.734375 C 314.171875 106.125 311.308594 99.761719 311.308594 92.765625 C 311.308594 85.769531 314.171875 79.40625 318.785156 74.792969 C 323.398438 70.179688 329.761719 67.3125 336.757812 67.3125 M 98.863281 67.3125 L 313.855469 67.3125 C 313.40625 67.71875 312.972656 68.128906 312.546875 68.554688 C 306.335938 74.765625 302.484375 83.335938 302.484375 92.765625 C 302.484375 102.195312 306.335938 110.765625 312.546875 116.976562 C 312.972656 117.402344 313.40625 117.816406 313.855469 118.214844 L 98.863281 118.214844 C 91.871094 118.214844 85.507812 115.351562 80.890625 110.734375 C 76.277344 106.125 73.410156 99.761719 73.410156 92.765625 C 73.410156 85.769531 76.277344 79.40625 80.890625 74.792969 C 85.507812 70.179688 91.871094 67.3125 98.863281 67.3125 Z M 98.863281 67.3125 " fill-opacity="1" fill-rule="nonzero"/></g><path fill="#2bbced" d="M 307.511719 86.589844 C 309.945312 86.589844 311.921875 84.613281 311.921875 82.179688 C 311.921875 79.742188 309.945312 77.769531 307.511719 77.769531 L 99.613281 77.769531 C 97.179688 77.769531 95.203125 79.742188 95.203125 82.179688 C 95.203125 84.613281 97.179688 86.589844 99.613281 86.589844 Z M 307.511719 86.589844 " fill-opacity="1" fill-rule="nonzero"/><path fill="#2bbced" d="M 307.511719 107.761719 C 309.945312 107.761719 311.921875 105.789062 311.921875 103.351562 C 311.921875 100.917969 309.945312 98.941406 307.511719 98.941406 L 99.613281 98.941406 C 97.179688 98.941406 95.203125 100.917969 95.203125 103.351562 C 95.203125 105.789062 97.179688 107.761719 99.613281 107.761719 Z M 307.511719 107.761719 " fill-opacity="1" fill-rule="nonzero"/><g clip-path="url(#c2227f942b)"><path fill="#2bbced" d="M 336.757812 148.507812 L 336.757812 139.683594 L 98.863281 139.683594 C 89.433594 139.683594 80.867188 143.539062 74.652344 149.746094 C 68.445312 155.957031 64.589844 164.527344 64.589844 173.957031 C 64.589844 183.390625 68.445312 191.957031 74.652344 198.167969 C 80.863281 204.375 89.433594 208.230469 98.863281 208.230469 L 336.757812 208.230469 L 336.757812 199.410156 C 329.761719 199.410156 323.398438 196.542969 318.785156 191.933594 C 314.171875 187.3125 311.308594 180.953125 311.308594 173.957031 C 311.308594 166.960938 314.171875 160.597656 318.785156 155.988281 C 323.398438 151.371094 329.761719 148.507812 336.757812 148.507812 M 98.863281 148.507812 L 313.855469 148.507812 C 313.40625 148.90625 312.972656 149.324219 312.546875 149.746094 C 306.335938 155.957031 302.484375 164.527344 302.484375 173.957031 C 302.484375 183.390625 306.335938 191.957031 312.546875 198.167969 C 312.972656 198.59375 313.40625 199.003906 313.855469 199.410156 L 98.863281 199.410156 C 91.871094 199.410156 85.507812 196.542969 80.890625 191.929688 C 76.277344 187.316406 73.410156 180.953125 73.410156 173.957031 C 73.410156 166.960938 76.277344 160.597656 80.890625 155.988281 C 85.507812 151.371094 91.871094 148.507812 98.863281 148.507812 Z M 98.863281 148.507812 " fill-opacity="1" fill-rule="nonzero"/></g><path fill="#2bbced" d="M 307.511719 167.78125 C 309.945312 167.78125 311.921875 165.808594 311.921875 163.371094 C 311.921875 160.9375 309.945312 158.960938 307.511719 158.960938 L 99.613281 158.960938 C 97.179688 158.960938 95.203125 160.9375 95.203125 163.371094 C 95.203125 165.808594 97.179688 167.78125 99.613281 167.78125 Z M 307.511719 167.78125 " fill-opacity="1" fill-rule="nonzero"/><path fill="#2bbced" d="M 307.511719 188.953125 C 309.945312 188.953125 311.921875 186.980469 311.921875 184.542969 C 311.921875 182.109375 309.945312 180.132812 307.511719 180.132812 L 99.613281 180.132812 C 97.179688 180.132812 95.203125 182.109375 95.203125 184.542969 C 95.203125 186.980469 97.179688 188.953125 99.613281 188.953125 Z M 307.511719 188.953125 " fill-opacity="1" fill-rule="nonzero"/><g clip-path="url(#050af67390)"><path fill="#2bbced" d="M 336.757812 229.695312 L 336.757812 220.875 L 98.863281 220.875 C 89.433594 220.875 80.867188 224.730469 74.652344 230.941406 C 68.445312 237.148438 64.589844 245.71875 64.589844 255.152344 C 64.589844 264.582031 68.445312 273.148438 74.652344 279.359375 C 80.863281 285.570312 89.433594 289.425781 98.863281 289.425781 L 336.757812 289.425781 L 336.757812 280.601562 C 329.761719 280.601562 323.398438 277.738281 318.785156 273.121094 C 314.171875 268.507812 311.308594 262.144531 311.308594 255.152344 C 311.308594 248.15625 314.171875 241.792969 318.785156 237.179688 C 323.398438 232.5625 329.761719 229.695312 336.757812 229.695312 M 98.863281 229.695312 L 313.855469 229.695312 C 313.40625 230.101562 312.972656 230.515625 312.546875 230.941406 C 306.335938 237.148438 302.484375 245.71875 302.484375 255.152344 C 302.484375 264.582031 306.335938 273.148438 312.546875 279.363281 C 312.972656 279.785156 313.40625 280.199219 313.855469 280.601562 L 98.863281 280.601562 C 91.871094 280.601562 85.507812 277.738281 80.890625 273.121094 C 76.277344 268.507812 73.410156 262.144531 73.410156 255.152344 C 73.410156 248.15625 76.277344 241.792969 80.890625 237.179688 C 85.507812 232.5625 91.871094 229.695312 98.863281 229.695312 Z M 98.863281 229.695312 " fill-opacity="1" fill-rule="nonzero"/></g><path fill="#2bbced" d="M 307.511719 248.976562 C 309.945312 248.976562 311.921875 247 311.921875 244.5625 C 311.921875 242.125 309.945312 240.152344 307.511719 240.152344 L 99.613281 240.152344 C 97.179688 240.152344 95.203125 242.125 95.203125 244.5625 C 95.203125 247 97.179688 248.976562 99.613281 248.976562 Z M 307.511719 248.976562 " fill-opacity="1" fill-rule="nonzero"/><path fill="#2bbced" d="M 307.511719 270.148438 C 309.945312 270.148438 311.921875 268.171875 311.921875 265.738281 C 311.921875 263.300781 309.945312 261.324219 307.511719 261.324219 L 99.613281 261.324219 C 97.179688 261.324219 95.203125 263.300781 95.203125 265.738281 C 95.203125 268.171875 97.179688 270.148438 99.613281 270.148438 Z M 307.511719 270.148438 " fill-opacity="1" fill-rule="nonzero"/><path stroke-linecap="butt" transform="matrix(0.75, 0, 0, 0.75, 81.718007, 309.518944)" fill="none" stroke-linejoin="miter" d="M 0.000990488 2.000784 L 160.001001 2.000784 " stroke="#000000" stroke-width="4" stroke-opacity="1" stroke-miterlimit="4"/></svg>