<svg xmlns="http://www.w3.org/2000/svg" xmlns:xlink="http://www.w3.org/1999/xlink" width="500" zoomAndPan="magnify" viewBox="0 0 375 374.999991" height="500" preserveAspectRatio="xMidYMid meet" version="1.0"><defs><g/><clipPath id="9a1b0915b5"><path d="M 11.195312 123.617188 L 80 123.617188 L 80 239.867188 L 11.195312 239.867188 Z M 11.195312 123.617188 " clip-rule="nonzero"/></clipPath><clipPath id="bd5b30c5e2"><path d="M 20 136 L 116.195312 136 L 116.195312 161 L 20 161 Z M 20 136 " clip-rule="nonzero"/></clipPath><clipPath id="a9c87bb30f"><path d="M 20 165 L 116.195312 165 L 116.195312 190 L 20 190 Z M 20 165 " clip-rule="nonzero"/></clipPath><clipPath id="4882df446a"><path d="M 20 193 L 116.195312 193 L 116.195312 218 L 20 218 Z M 20 193 " clip-rule="nonzero"/></clipPath></defs><g clip-path="url(#9a1b0915b5)"><path fill="#203d4a" d="M 45.585938 227.707031 C 48.226562 227.707031 50.367188 229.847656 50.367188 232.484375 C 50.367188 235.125 48.226562 237.265625 45.585938 237.265625 C 42.945312 237.265625 40.808594 235.125 40.808594 232.484375 C 40.808594 229.847656 42.945312 227.707031 45.585938 227.707031 M 16.246094 123.617188 L 74.929688 123.617188 C 77.703125 123.617188 79.972656 125.886719 79.972656 128.664062 L 79.972656 133.839844 L 76.785156 133.839844 L 76.785156 131.582031 C 76.785156 130.5625 75.953125 129.726562 74.929688 129.726562 L 16.246094 129.726562 C 15.222656 129.726562 14.386719 130.5625 14.386719 131.582031 L 14.386719 223.195312 C 14.386719 224.214844 15.222656 225.050781 16.246094 225.050781 L 74.929688 225.050781 C 75.949219 225.050781 76.785156 224.214844 76.785156 223.195312 L 76.785156 220.40625 L 79.972656 220.40625 L 79.972656 235.144531 C 79.972656 237.917969 77.703125 240.1875 74.929688 240.1875 L 16.246094 240.1875 C 13.46875 240.1875 11.199219 237.917969 11.199219 235.144531 L 11.199219 128.664062 C 11.199219 125.886719 13.46875 123.617188 16.246094 123.617188 Z M 16.246094 123.617188 " fill-opacity="1" fill-rule="evenodd"/></g><g clip-path="url(#bd5b30c5e2)"><path fill="#2bbced" d="M 116.519531 139.5 L 116.519531 136.386719 L 32.585938 136.386719 C 29.261719 136.386719 26.238281 137.746094 24.046875 139.9375 C 21.855469 142.128906 20.496094 145.152344 20.496094 148.476562 C 20.496094 151.804688 21.855469 154.828125 24.046875 157.019531 C 26.238281 159.210938 29.261719 160.570312 32.585938 160.570312 L 116.519531 160.570312 L 116.519531 157.457031 C 114.050781 157.457031 111.804688 156.445312 110.175781 154.816406 C 108.546875 153.191406 107.539062 150.945312 107.539062 148.476562 C 107.539062 146.011719 108.550781 143.765625 110.175781 142.136719 C 111.804688 140.507812 114.050781 139.5 116.519531 139.5 M 32.585938 139.5 L 108.4375 139.5 C 108.28125 139.640625 108.125 139.785156 107.976562 139.9375 C 105.785156 142.125 104.425781 145.152344 104.425781 148.476562 C 104.425781 151.804688 105.785156 154.828125 107.976562 157.019531 C 108.125 157.167969 108.28125 157.316406 108.4375 157.457031 L 32.585938 157.457031 C 30.121094 157.457031 27.875 156.445312 26.246094 154.816406 C 24.617188 153.191406 23.609375 150.945312 23.609375 148.476562 C 23.609375 146.011719 24.617188 143.765625 26.246094 142.136719 C 27.875 140.507812 30.121094 139.5 32.585938 139.5 Z M 32.585938 139.5 " fill-opacity="1" fill-rule="nonzero"/></g><path fill="#2bbced" d="M 106.199219 146.300781 C 107.058594 146.300781 107.757812 145.601562 107.757812 144.742188 C 107.757812 143.882812 107.058594 143.1875 106.199219 143.1875 L 32.851562 143.1875 C 31.992188 143.1875 31.296875 143.882812 31.296875 144.742188 C 31.296875 145.601562 31.992188 146.300781 32.851562 146.300781 Z M 106.199219 146.300781 " fill-opacity="1" fill-rule="nonzero"/><path fill="#2bbced" d="M 106.199219 153.769531 C 107.058594 153.769531 107.757812 153.070312 107.757812 152.210938 C 107.757812 151.355469 107.058594 150.65625 106.199219 150.65625 L 32.851562 150.65625 C 31.992188 150.65625 31.296875 151.355469 31.296875 152.210938 C 31.296875 153.070312 31.992188 153.769531 32.851562 153.769531 Z M 106.199219 153.769531 " fill-opacity="1" fill-rule="nonzero"/><g clip-path="url(#a9c87bb30f)"><path fill="#2bbced" d="M 116.519531 168.144531 L 116.519531 165.03125 L 32.585938 165.03125 C 29.261719 165.03125 26.238281 166.390625 24.046875 168.582031 C 21.855469 170.773438 20.496094 173.796875 20.496094 177.121094 C 20.496094 180.449219 21.855469 183.472656 24.046875 185.664062 C 26.238281 187.855469 29.261719 189.214844 32.585938 189.214844 L 116.519531 189.214844 L 116.519531 186.101562 C 114.050781 186.101562 111.804688 185.089844 110.175781 183.464844 C 108.546875 181.835938 107.539062 179.589844 107.539062 177.121094 C 107.539062 174.65625 108.550781 172.410156 110.175781 170.78125 C 111.804688 169.152344 114.050781 168.144531 116.519531 168.144531 M 32.585938 168.144531 L 108.4375 168.144531 C 108.28125 168.285156 108.125 168.433594 107.976562 168.582031 C 105.785156 170.773438 104.425781 173.796875 104.425781 177.121094 C 104.425781 180.449219 105.785156 183.472656 107.976562 185.664062 C 108.125 185.8125 108.28125 185.960938 108.4375 186.101562 L 32.585938 186.101562 C 30.121094 186.101562 27.875 185.089844 26.246094 183.464844 C 24.617188 181.835938 23.609375 179.589844 23.609375 177.121094 C 23.609375 174.65625 24.617188 172.410156 26.246094 170.78125 C 27.875 169.152344 30.121094 168.144531 32.585938 168.144531 Z M 32.585938 168.144531 " fill-opacity="1" fill-rule="nonzero"/></g><path fill="#2bbced" d="M 106.199219 174.945312 C 107.058594 174.945312 107.757812 174.246094 107.757812 173.386719 C 107.757812 172.527344 107.058594 171.832031 106.199219 171.832031 L 32.851562 171.832031 C 31.992188 171.832031 31.296875 172.527344 31.296875 173.386719 C 31.296875 174.246094 31.992188 174.945312 32.851562 174.945312 Z M 106.199219 174.945312 " fill-opacity="1" fill-rule="nonzero"/><path fill="#2bbced" d="M 106.199219 182.414062 C 107.058594 182.414062 107.757812 181.71875 107.757812 180.855469 C 107.757812 180 107.058594 179.300781 106.199219 179.300781 L 32.851562 179.300781 C 31.992188 179.300781 31.296875 180 31.296875 180.855469 C 31.296875 181.71875 31.992188 182.414062 32.851562 182.414062 Z M 106.199219 182.414062 " fill-opacity="1" fill-rule="nonzero"/><g clip-path="url(#4882df446a)"><path fill="#2bbced" d="M 116.519531 196.789062 L 116.519531 193.675781 L 32.585938 193.675781 C 29.261719 193.675781 26.238281 195.035156 24.046875 197.226562 C 21.855469 199.417969 20.496094 202.441406 20.496094 205.769531 C 20.496094 209.09375 21.855469 212.117188 24.046875 214.308594 C 26.238281 216.5 29.261719 217.859375 32.585938 217.859375 L 116.519531 217.859375 L 116.519531 214.746094 C 114.050781 214.746094 111.804688 213.738281 110.175781 212.109375 C 108.546875 210.480469 107.539062 208.234375 107.539062 205.769531 C 107.539062 203.300781 108.550781 201.054688 110.175781 199.425781 C 111.804688 197.800781 114.050781 196.789062 116.519531 196.789062 M 32.585938 196.789062 L 108.4375 196.789062 C 108.28125 196.929688 108.125 197.078125 107.976562 197.226562 C 105.785156 199.417969 104.425781 202.441406 104.425781 205.769531 C 104.425781 209.09375 105.785156 212.117188 107.976562 214.308594 C 108.125 214.460938 108.28125 214.605469 108.4375 214.746094 L 32.585938 214.746094 C 30.121094 214.746094 27.875 213.738281 26.246094 212.109375 C 24.617188 210.480469 23.609375 208.234375 23.609375 205.769531 C 23.609375 203.300781 24.617188 201.054688 26.246094 199.425781 C 27.875 197.800781 30.121094 196.789062 32.585938 196.789062 Z M 32.585938 196.789062 " fill-opacity="1" fill-rule="nonzero"/></g><path fill="#2bbced" d="M 106.199219 203.589844 C 107.058594 203.589844 107.757812 202.894531 107.757812 202.03125 C 107.757812 201.171875 107.058594 200.476562 106.199219 200.476562 L 32.851562 200.476562 C 31.992188 200.476562 31.296875 201.171875 31.296875 202.03125 C 31.296875 202.894531 31.992188 203.589844 32.851562 203.589844 Z M 106.199219 203.589844 " fill-opacity="1" fill-rule="nonzero"/><path fill="#2bbced" d="M 106.199219 211.058594 C 107.058594 211.058594 107.757812 210.363281 107.757812 209.503906 C 107.757812 208.644531 107.058594 207.945312 106.199219 207.945312 L 32.851562 207.945312 C 31.992188 207.945312 31.296875 208.644531 31.296875 209.503906 C 31.296875 210.363281 31.992188 211.058594 32.851562 211.058594 Z M 106.199219 211.058594 " fill-opacity="1" fill-rule="nonzero"/><g fill="#203d4a" fill-opacity="1"><g transform="translate(124.527901, 191.112884)"><g><path d="M 14.890625 -29.90625 C 16.066406 -29.90625 17.175781 -29.671875 18.21875 -29.203125 C 19.257812 -28.742188 20.164062 -28.113281 20.9375 -27.3125 C 21.707031 -26.507812 22.316406 -25.566406 22.765625 -24.484375 C 23.222656 -23.398438 23.453125 -22.238281 23.453125 -21 C 23.453125 -19.757812 23.222656 -18.597656 22.765625 -17.515625 C 22.316406 -16.441406 21.707031 -15.492188 20.9375 -14.671875 C 20.164062 -13.859375 19.257812 -13.21875 18.21875 -12.75 C 17.175781 -12.289062 16.066406 -12.0625 14.890625 -12.0625 L 8.34375 -12.0625 L 8.34375 0 L 1.984375 0 L 1.984375 -29.90625 Z M 14.046875 -17.875 C 14.859375 -17.875 15.566406 -18.175781 16.171875 -18.78125 C 16.773438 -19.382812 17.078125 -20.125 17.078125 -21 C 17.078125 -21.84375 16.773438 -22.566406 16.171875 -23.171875 C 15.566406 -23.773438 14.859375 -24.078125 14.046875 -24.078125 L 8.34375 -24.078125 L 8.34375 -17.875 Z M 14.046875 -17.875 "/></g></g></g><g fill="#203d4a" fill-opacity="1"><g transform="translate(148.477696, 191.112884)"><g><path d="M 23.484375 -21 C 23.484375 -20.039062 23.347656 -19.132812 23.078125 -18.28125 C 22.816406 -17.425781 22.445312 -16.640625 21.96875 -15.921875 C 21.488281 -15.203125 20.910156 -14.566406 20.234375 -14.015625 C 19.566406 -13.472656 18.835938 -13.03125 18.046875 -12.6875 L 27.953125 0 L 20.5 0 L 11.265625 -12.0625 L 8.390625 -12.0625 L 8.390625 0 L 1.984375 0 L 1.984375 -29.90625 L 14.890625 -29.90625 C 16.066406 -29.90625 17.179688 -29.671875 18.234375 -29.203125 C 19.296875 -28.742188 20.210938 -28.113281 20.984375 -27.3125 C 21.753906 -26.507812 22.363281 -25.566406 22.8125 -24.484375 C 23.257812 -23.398438 23.484375 -22.238281 23.484375 -21 Z M 14.078125 -17.875 C 14.898438 -17.875 15.601562 -18.175781 16.1875 -18.78125 C 16.78125 -19.382812 17.078125 -20.125 17.078125 -21 C 17.078125 -21.84375 16.78125 -22.566406 16.1875 -23.171875 C 15.601562 -23.773438 14.898438 -24.078125 14.078125 -24.078125 L 8.390625 -24.078125 L 8.390625 -17.875 Z M 14.078125 -17.875 "/></g></g></g><g fill="#203d4a" fill-opacity="1"><g transform="translate(177.44515, 191.112884)"><g><path d="M 20.375 -29.90625 L 32.859375 0 L 25.9375 0 L 23.234375 -6.40625 L 10.546875 -6.40625 L 7.890625 0 L 0.921875 0 L 13.40625 -29.90625 Z M 20.828125 -12.234375 L 16.90625 -21.640625 L 12.984375 -12.234375 Z M 20.828125 -12.234375 "/></g></g></g><g fill="#203d4a" fill-opacity="1"><g transform="translate(211.21942, 191.112884)"><g><path d="M 28.171875 -29.90625 L 34.203125 -29.90625 L 34.203125 0 L 27.828125 0 L 27.828125 -19.734375 L 20.703125 -9.734375 L 15.609375 -9.734375 L 8.390625 -19.4375 L 8.390625 0 L 1.984375 0 L 1.984375 -29.90625 L 8.0625 -29.90625 L 18.171875 -16.109375 Z M 28.171875 -29.90625 "/></g></g></g><g fill="#203d4a" fill-opacity="1"><g transform="translate(247.397104, 191.112884)"><g><path d="M 20.375 -29.90625 L 32.859375 0 L 25.9375 0 L 23.234375 -6.40625 L 10.546875 -6.40625 L 7.890625 0 L 0.921875 0 L 13.40625 -29.90625 Z M 20.828125 -12.234375 L 16.90625 -21.640625 L 12.984375 -12.234375 Z M 20.828125 -12.234375 "/></g></g></g><g fill="#203d4a" fill-opacity="1"><g transform="translate(281.171374, 191.112884)"><g><path d="M 22.4375 -29.90625 L 28.796875 -29.90625 L 28.796875 0 L 22.734375 0 L 8.34375 -19.53125 L 8.34375 0 L 1.984375 0 L 1.984375 -29.90625 L 7.96875 -29.90625 L 22.4375 -10.25 Z M 22.4375 -29.90625 "/></g></g></g><g fill="#203d4a" fill-opacity="1"><g transform="translate(311.951922, 191.112884)"><g><path d="M 12.859375 -29.90625 L 12.859375 -24.5 L 10.625 -24.5 L 10.625 -5.359375 L 12.859375 -5.359375 L 12.859375 0 L 1.984375 0 L 1.984375 -5.359375 L 4.21875 -5.359375 L 4.21875 -24.5 L 1.984375 -24.5 L 1.984375 -29.90625 Z M 12.859375 -29.90625 "/></g></g></g><g fill="#203d4a" fill-opacity="1"><g transform="translate(326.751888, 191.112884)"><g><path d="M 15.015625 -16.234375 L 29.4375 0 L 21.546875 0 L 10.96875 -12.1875 L 8.390625 -9.578125 L 8.390625 0 L 1.984375 0 L 1.984375 -29.90625 L 8.390625 -29.90625 L 8.390625 -17.796875 L 20.40625 -29.90625 L 28.59375 -29.90625 Z M 15.015625 -16.234375 "/></g></g></g><path stroke-linecap="butt" transform="matrix(0.75, 0, 0, 0.75, 171.042648, 201.465162)" fill="none" stroke-linejoin="miter" d="M 0.000427042 1.999576 L 160.000438 1.999576 " stroke="#203d4a" stroke-width="4" stroke-opacity="1" stroke-miterlimit="4"/></svg>